<svg width="24" height="24" viewBox="0 0 24 24" fill="none" xmlns="http://www.w3.org/2000/svg" class="mr-1">
              <path d="M3.8 14.25H7.61C7.45549 12.754 7.45549 11.246 7.61 9.75H3.81C3.40573 11.2228 3.40573 12.7772 3.81 14.25H3.8ZM4.37 15.75C5.37 17.79 7.17 19.36 9.35 20.08C8.67 18.98 8.15 17.48 7.83 15.75H4.37V15.75ZM20.2 14.25C20.6043 12.7772 20.6043 11.2228 20.2 9.75H16.39C16.5445 11.246 16.5445 12.754 16.39 14.25H20.19H20.2ZM19.63 15.75H16.17C15.9287 17.2732 15.4138 18.7402 14.65 20.08C15.7261 19.7252 16.7207 19.1595 17.5757 18.4161C18.4307 17.6727 19.1291 16.7663 19.63 15.75V15.75ZM9.13 14.25H14.87C15.0383 12.7547 15.0383 11.2453 14.87 9.75H9.13C8.96173 11.2453 8.96173 12.7547 9.13 14.25V14.25ZM9.36 15.75C9.92 18.59 11.05 20.5 12 20.5C12.95 20.5 14.08 18.6 14.64 15.75H9.36ZM4.37 8.25H7.83C8.14 6.51 8.67 5.01 9.35 3.92C8.27394 4.27482 7.27935 4.84046 6.42431 5.5839C5.56927 6.32734 4.87091 7.23368 4.37 8.25V8.25ZM19.63 8.25C19.1291 7.23368 18.4307 6.32734 17.5757 5.5839C16.7207 4.84046 15.7261 4.27482 14.65 3.92C15.33 5.02 15.85 6.52 16.17 8.25H19.63ZM21.27 8.25H21.31V8.35C22.28 10.8134 22.2336 13.5609 21.1808 15.9901C20.1281 18.4193 18.155 20.332 15.6943 21.3086C13.2335 22.2852 10.4858 22.2462 8.05381 21.2C5.62178 20.1538 3.70386 18.1859 2.7206 15.7278C1.73735 13.2696 1.769 10.5219 2.80863 8.08704C3.84825 5.6522 5.81099 3.72899 8.26648 2.73912C10.722 1.74925 13.4698 1.7735 15.9074 2.80657C18.345 3.83963 20.2735 5.79719 21.27 8.25V8.25ZM9.36 8.25H14.64C14.08 5.41 12.95 3.5 12 3.5C11.05 3.5 9.92 5.4 9.36 8.25Z" fill="currentColor"></path>
              </svg>